<svg xmlns="http://www.w3.org/2000/svg" viewBox="0 0 24 24" fill="none" stroke="#f87171" stroke-width="1.25" stroke-linecap="round" stroke-linejoin="round">
  <ellipse cx="12" cy="14" rx="5" ry="3.5" fill="rgba(69,10,10,0.1)" />
  <path d="M7 13L3 10c-1.5 1-.5 3 0 3l-1 2c-.5 1 .5 3 1.5 2l3.5-4" />
  <path d="M17 13l4-3c1.5 1 .5 3 0 3l1 2c.5 1-.5 3-1.5 2l-3.5-4" />
  <path d="M7 15l-3 2M8 16l-2 3M8 13l-3-1" />
  <path d="M17 15l3 2M16 16l2 3M16 13l3-1" />
  <circle cx="9" cy="11" r="1" fill="#f87171" />
  <circle cx="15" cy="11" r="1" fill="#f87171" />
</svg>
